<?xml version="1.0" encoding="UTF-8" standalone="no"?>
<svg
   xmlns:dc="http://purl.org/dc/elements/1.1/"
   xmlns:cc="http://creativecommons.org/ns#"
   xmlns:rdf="http://www.w3.org/1999/02/22-rdf-syntax-ns#"
   xmlns:svg="http://www.w3.org/2000/svg"
   xmlns="http://www.w3.org/2000/svg"
   xmlns:sodipodi="http://sodipodi.sourceforge.net/DTD/sodipodi-0.dtd"
   xmlns:inkscape="http://www.inkscape.org/namespaces/inkscape"
   id="Capa_1"
   data-name="Capa 1"
   viewBox="0 0 890.39002 310.69002"
   version="1.1"
   sodipodi:docname="oficina-patentes-2.svg"
   width="890.39001"
   height="310.69"
   inkscape:version="0.92.4 (5da689c313, 2019-01-14)">
  <metadata
     id="metadata75">
    <rdf:RDF>
      <cc:Work
         rdf:about="">
        <dc:format>image/svg+xml</dc:format>
        <dc:type
           rdf:resource="http://purl.org/dc/dcmitype/StillImage" />
        <dc:title></dc:title>
      </cc:Work>
    </rdf:RDF>
  </metadata>
  <sodipodi:namedview
     pagecolor="#ffffff"
     bordercolor="#666666"
     borderopacity="1"
     objecttolerance="10"
     gridtolerance="10"
     guidetolerance="10"
     inkscape:pageopacity="0"
     inkscape:pageshadow="2"
     inkscape:window-width="2560"
     inkscape:window-height="1009"
     id="namedview73"
     showgrid="false"
     inkscape:zoom="1.0881924"
     inkscape:cx="219.81059"
     inkscape:cy="261.19358"
     inkscape:window-x="1358"
     inkscape:window-y="-8"
     inkscape:window-maximized="1"
     inkscape:current-layer="Capa_1" />
  <defs
     id="defs4">
    <style
       id="style2">.cls-1{fill:#141515;}.cls-2{fill:#fec80f;}.cls-3{fill:#24408b;}</style>
  </defs>
  <path
     class="cls-1"
     d="m 375.26811,81.760514 a 22.060426,22.060426 0 1 1 -31.40073,30.994246 20.324089,20.324089 0 0 1 -5.79237,-14.836591 21.746776,21.746776 0 0 1 6.09723,-15.852781 20.933812,20.933812 0 0 1 15.75117,-5.792371 21.238672,21.238672 0 0 1 15.3447,5.487497 z m -5.99562,27.335896 a 36.38012,36.38012 0 0 0 1.42269,-11.483094 30.486133,30.486133 0 0 0 -2.947,-14.836594 8.8409788,8.8409788 0 0 0 -7.92639,-4.877789 q -6.91019,0 -9.4507,8.231266 a 39.123872,39.123872 0 0 0 -1.42269,11.483117 39.631974,39.631974 0 0 0 1.42269,11.483094 c 1.72756,5.48752 4.87779,8.12964 9.4507,8.12964 a 9.5523218,9.5523218 0 0 0 9.4507,-8.12964 z"
     id="path6"
     inkscape:connector-curvature="0"
     style="fill:#141515;stroke-width:10.16204453" />
  <path
     class="cls-1"
     d="m 384.61719,116.9212 a 5.0810223,5.0810223 0 0 0 2.64212,-0.81296 3.5567156,3.5567156 0 0 0 0.91458,-2.84537 V 92.938777 h -3.5567 v -2.743769 h 3.5567 v -2.235644 a 15.751169,15.751169 0 0 1 1.32106,-7.011808 9.3490809,9.3490809 0 0 1 9.3491,-5.182642 11.076629,11.076629 0 0 1 6.19883,1.727541 5.0810223,5.0810223 0 0 1 2.54052,4.369684 3.658336,3.658336 0 0 1 -3.96321,3.759955 3.658336,3.658336 0 0 1 -2.43887,-0.914582 3.1502338,3.1502338 0 0 1 -1.11783,-2.337269 4.4712995,4.4712995 0 0 1 0.71135,-2.13402 4.0648177,4.0648177 0 0 0 0.71134,-1.321082 1.0162045,1.0162045 0 0 0 -0.60974,-1.016208 h -1.11781 a 3.0486133,3.0486133 0 0 0 -2.33726,0.914604 5.7923655,5.7923655 0 0 0 -0.81298,3.658331 v 7.92639 h 5.38589 v 2.743748 h -5.38589 v 18.698174 c 0,2.13402 0,3.35346 0.91458,3.86156 a 7.8247742,7.8247742 0 0 0 4.06483,0.91458 v 1.52431 h -16.97061 z"
     id="path8"
     inkscape:connector-curvature="0"
     style="fill:#141515;stroke-width:10.16204453" />
  <path
     class="cls-1"
     d="m 405.14451,116.9212 a 4.6745405,4.6745405 0 0 0 2.23566,-0.81296 3.658336,3.658336 0 0 0 0.81296,-2.84537 V 94.971172 a 3.658336,3.658336 0 0 0 -0.60973,-2.540499 3.8615768,3.8615768 0 0 0 -2.43889,-1.016208 v -1.524311 h 11.68637 v 23.271086 c 0,1.32106 0,2.23564 0.6097,2.5405 a 4.57292,4.57292 0 0 0 2.23565,0.91458 v 1.52431 h -14.53172 z m 4.06483,-39.428745 a 4.6745405,4.6745405 0 1 1 -1.42269,3.353477 4.57292,4.57292 0 0 1 1.42269,-3.658331 z"
     id="path10"
     inkscape:connector-curvature="0"
     style="fill:#141515;stroke-width:10.16204453" />
  <path
     class="cls-1"
     d="m 443.65867,91.007986 a 5.5891246,5.5891246 0 0 1 2.74375,4.877768 3.658336,3.658336 0 0 1 -1.11784,2.743769 3.8615768,3.8615768 0 0 1 -2.84537,1.117815 3.5567156,3.5567156 0 0 1 -2.0324,0 3.658336,3.658336 0 0 1 -1.62593,-3.455085 v -0.812977 a 3.7599565,3.7599565 0 0 0 0,-1.117812 2.743752,2.743752 0 0 0 -0.81296,-2.235666 2.743752,2.743752 0 0 0 -1.72757,-0.609708 4.2680586,4.2680586 0 0 0 -4.0648,3.150227 20.324089,20.324089 0 0 0 -1.11783,7.215053 18.494921,18.494921 0 0 0 2.23566,9.55231 6.9101903,6.9101903 0 0 0 6.09722,3.9632 7.7231539,7.7231539 0 0 0 4.16644,-1.11783 12.296073,12.296073 0 0 0 2.43889,-2.33726 l 1.21944,1.11783 a 16.05603,16.05603 0 0 1 -7.01181,5.69074 13.515519,13.515519 0 0 1 -4.57291,0.81296 12.092833,12.092833 0 0 1 -9.55233,-4.26806 14.531723,14.531723 0 0 1 -3.75995,-10.16203 15.751169,15.751169 0 0 1 3.96321,-10.873392 13.210658,13.210658 0 0 1 10.16203,-4.471308 12.296073,12.296073 0 0 1 7.21506,1.219456 z"
     id="path12"
     inkscape:connector-curvature="0"
     style="fill:#141515;stroke-width:10.16204453" />
  <path
     class="cls-1"
     d="m 449.34941,116.9212 a 4.2680586,4.2680586 0 0 0 2.13403,-0.81296 3.658336,3.658336 0 0 0 0.91458,-2.84537 V 94.971172 a 3.658336,3.658336 0 0 0 -0.60972,-2.540499 3.8615768,3.8615768 0 0 0 -2.43889,-1.016208 v -1.524311 h 11.68635 v 23.271086 c 0,1.32106 0,2.23564 0.60973,2.5405 a 4.1664383,4.1664383 0 0 0 2.23564,0.91458 v 1.52431 h -14.53172 z m 4.06482,-39.428745 a 4.6745405,4.6745405 0 0 1 6.70695,0 4.8777814,4.8777814 0 0 1 0,6.706953 4.776161,4.776161 0 1 1 -6.70695,-6.706953 z"
     id="path14"
     inkscape:connector-curvature="0"
     style="fill:#141515;stroke-width:10.16204453" />
  <path
     class="cls-1"
     d="m 504.83416,105.84456 a 53.045872,53.045872 0 0 1 12.49933,-4.87777 v -4.369683 a 6.5037086,6.5037086 0 0 0 -1.11784,-4.06483 5.6907449,5.6907449 0 0 0 -4.16642,-1.219436 5.3858837,5.3858837 0 0 0 -2.64216,0.609728 1.829168,1.829168 0 0 0 -1.1178,1.524312 c 0,0 0,0 0,0.609707 v 0.508104 0 l 0.60973,1.117833 a 2.8453726,2.8453726 0 0 1 0,1.321062 3.1502338,3.1502338 0 0 1 -1.21946,2.642126 3.9631974,3.9631974 0 0 1 -2.64212,0.914577 4.57292,4.57292 0 0 1 -3.04863,-1.016184 3.8615768,3.8615768 0 0 1 -1.21944,-3.048623 6.4020879,6.4020879 0 0 1 3.35348,-5.589122 15.547928,15.547928 0 0 1 8.12962,-2.032415 17.681957,17.681957 0 0 1 8.73937,2.032415 7.8247742,7.8247742 0 0 1 3.4551,7.418287 v 14.836592 a 1.829168,1.829168 0 0 0 0,1.11781 c 0,0 0,0.50811 0.81296,0.50811 h 0.60973 l 0.91458,-0.81296 0.91458,1.32106 a 10.162045,10.162045 0 0 1 -3.96321,2.947 9.4507014,9.4507014 0 0 1 -2.94699,0.5081 4.57292,4.57292 0 0 1 -3.96318,-1.62593 4.9794019,4.9794019 0 0 1 -1.01621,-2.64213 14.734965,14.734965 0 0 1 -5.79237,3.65833 12.092833,12.092833 0 0 1 -3.75996,0.60973 7.3166721,7.3166721 0 0 1 -4.67454,-1.62593 5.5891246,5.5891246 0 0 1 -2.23564,-4.97939 7.3166721,7.3166721 0 0 1 5.48749,-6.30048 z m 10.67016,7.82478 a 11.787971,11.787971 0 0 0 1.72754,-1.62593 v -8.9426 a 13.515519,13.515519 0 0 0 -4.26805,1.82916 6.6053289,6.6053289 0 0 0 -3.15023,5.58912 4.57292,4.57292 0 0 0 0.91458,3.04863 2.5405111,2.5405111 0 0 0 2.0324,1.01621 4.4712995,4.4712995 0 0 0 2.74376,-0.91459 z"
     id="path16"
     inkscape:connector-curvature="0"
     style="fill:#141515;stroke-width:10.16204453" />
  <path
     class="cls-1"
     d="m 548.93744,118.14063 v -1.21943 a 7.8247742,7.8247742 0 0 0 3.75996,-0.71136 3.7599565,3.7599565 0 0 0 1.72755,-3.5567 V 82.573492 a 3.658336,3.658336 0 0 0 -1.82918,-3.556726 8.3328766,8.3328766 0 0 0 -3.65833,-0.711333 v -2.032416 h 35.2623 v 12.397701 h -1.42269 a 13.820381,13.820381 0 0 0 -3.96319,-8.129641 17.783578,17.783578 0 0 0 -10.16205,-2.13404 6.8085698,6.8085698 0 0 0 -3.65833,0.609729 c 0,0 -0.71136,1.117832 -0.71136,2.235644 v 14.226866 a 10.162045,10.162045 0 0 0 7.11344,-1.930791 15.243067,15.243067 0 0 0 2.84537,-7.113432 h 1.52431 v 20.324087 h -1.52431 a 13.71876,13.71876 0 0 0 -2.74375,-7.316659 10.162045,10.162045 0 0 0 -7.21506,-2.134041 v 15.54793 a 3.0486133,3.0486133 0 0 0 1.01621,2.64214 8.7393584,8.7393584 0 0 0 4.06483,0.60973 17.681957,17.681957 0 0 0 9.55231,-2.23566 18.596541,18.596541 0 0 0 6.60532,-8.53612 h 1.72756 l -2.54051,12.80417 z"
     id="path18"
     inkscape:connector-curvature="0"
     style="fill:#141515;stroke-width:10.16204453" />
  <path
     class="cls-1"
     d="m 590.39858,108.79156 h 1.62593 a 9.5523218,9.5523218 0 0 0 3.35347,6.19885 8.434497,8.434497 0 0 0 5.18264,1.93079 4.8777814,4.8777814 0 0 0 3.4551,-1.01621 3.8615768,3.8615768 0 0 0 1.11783,-2.84537 3.658336,3.658336 0 0 0 -1.21946,-2.74375 8.434497,8.434497 0 0 0 -2.13402,-1.42269 l -4.67454,-2.13404 a 14.125242,14.125242 0 0 1 -5.08102,-3.86156 7.6215333,7.6215333 0 0 1 -1.62593,-4.877786 8.3328766,8.3328766 0 0 1 2.54052,-6.097225 9.14584,9.14584 0 0 1 6.91018,-2.642144 14.633344,14.633344 0 0 1 4.06481,0.609729 12.702556,12.702556 0 0 0 2.74377,0.711354 1.6259271,1.6259271 0 0 0 1.11781,0 3.658336,3.658336 0 0 0 0.50811,-0.914603 h 1.32106 v 8.840993 h -1.52429 a 10.873388,10.873388 0 0 0 -2.84537,-4.979413 6.6053289,6.6053289 0 0 0 -4.57294,-1.93079 3.5567156,3.5567156 0 0 0 -3.0486,1.219457 3.1502338,3.1502338 0 0 0 0,4.572914 8.0280151,8.0280151 0 0 0 3.25185,2.235647 l 3.35348,1.625937 a 17.783578,17.783578 0 0 1 4.57291,2.94699 8.1296357,8.1296357 0 0 1 2.33728,5.89398 10.162045,10.162045 0 0 1 -2.4389,6.30047 9.2474605,9.2474605 0 0 1 -7.41829,2.947 h -2.4389 l -3.04859,-0.91458 h -1.11783 -0.60974 v 0 a 1.2194454,1.2194454 0 0 0 -0.91458,0 6.0972267,6.0972267 0 0 0 -0.81296,1.32106 h -1.93079 z"
     id="path20"
     inkscape:connector-curvature="0"
     style="fill:#141515;stroke-width:10.16204453" />
  <path
     class="cls-1"
     d="m 613.7713,129.21727 a 4.0648177,4.0648177 0 0 0 2.64212,-0.91458 c 0,0 0.71133,-1.32107 0.71133,-2.64214 V 95.174421 a 3.9631974,3.9631974 0 0 0 -0.60971,-2.642144 4.6745405,4.6745405 0 0 0 -2.64214,-0.914582 v -1.524291 h 11.68637 v 4.064809 a 10.162045,10.162045 0 0 1 2.43887,-3.048622 8.1296357,8.1296357 0 0 1 5.48751,-1.727541 10.162045,10.162045 0 0 1 8.02802,3.556727 15.85279,15.85279 0 0 1 3.15023,10.771763 17.783578,17.783578 0 0 1 -3.45511,10.87339 10.162045,10.162045 0 0 1 -8.33286,4.36969 9.0442197,9.0442197 0 0 1 -4.77616,-1.4227 12.194454,12.194454 0 0 1 -2.4389,-2.23566 v 10.16206 a 5.7923655,5.7923655 0 0 0 1.21946,3.35347 6.0972267,6.0972267 0 0 0 3.45508,1.01619 v 1.32108 H 613.7713 Z m 21.23867,-18.08844 a 29.67317,29.67317 0 0 0 0.60971,-6.91019 31.299097,31.299097 0 0 0 -0.91459,-8.43449 3.7599565,3.7599565 0 0 0 -3.86158,-3.048623 4.4712995,4.4712995 0 0 0 -3.5567,1.727541 q -1.52432,1.625935 -1.52432,2.438894 v 14.938218 c 0,0.6097 0,1.32106 1.42269,2.33727 a 4.9794019,4.9794019 0 0 0 3.35347,1.42268 c 2.23565,0 3.65834,-1.5243 4.47132,-4.4713 z"
     id="path22"
     inkscape:connector-curvature="0"
     style="fill:#141515;stroke-width:10.16204453" />
  <path
     class="cls-1"
     d="m 652.18381,105.84456 a 53.045872,53.045872 0 0 1 12.49933,-4.87777 v -4.369683 a 6.5037086,6.5037086 0 0 0 -1.11784,-4.06483 5.6907449,5.6907449 0 0 0 -4.16644,-1.219436 5.3858837,5.3858837 0 0 0 -2.64212,0.609728 1.829168,1.829168 0 0 0 -1.11783,1.524312 1.4226863,1.4226863 0 0 0 0,0.609707 c 0,0 0,0 0,0.508104 v 0 a 3.9631974,3.9631974 0 0 1 0.60973,1.117833 2.8453726,2.8453726 0 0 1 0,1.321062 3.1502338,3.1502338 0 0 1 -1.21946,2.642126 3.9631974,3.9631974 0 0 1 -2.64212,0.914577 4.3696792,4.3696792 0 0 1 -2.947,-1.016184 3.5567156,3.5567156 0 0 1 -1.32106,-3.048623 6.4020879,6.4020879 0 0 1 3.35348,-5.589122 15.547928,15.547928 0 0 1 8.12962,-2.032415 17.681957,17.681957 0 0 1 8.73936,2.032415 7.8247742,7.8247742 0 0 1 3.4551,7.418287 v 14.836592 a 1.829168,1.829168 0 0 0 0,1.11781 c 0,0 0,0.50811 0.81297,0.50811 h 0.60972 l 0.91459,-0.81296 0.91458,1.32106 a 10.162045,10.162045 0 0 1 -3.96321,2.947 9.4507014,9.4507014 0 0 1 -2.947,0.5081 4.57292,4.57292 0 0 1 -3.96318,-1.62593 5.8939858,5.8939858 0 0 1 -1.01621,-2.64213 14.734965,14.734965 0 0 1 -5.79237,3.65833 12.092833,12.092833 0 0 1 -3.75996,0.60973 7.3166721,7.3166721 0 0 1 -4.67453,-1.62593 5.5891246,5.5891246 0 0 1 -2.23564,-4.97939 7.3166721,7.3166721 0 0 1 5.48749,-6.30048 z m 10.16205,7.82478 a 8.231256,8.231256 0 0 0 1.72755,-1.62593 v -8.9426 a 13.515519,13.515519 0 0 0 -4.26806,1.82916 6.6053289,6.6053289 0 0 0 -3.15023,5.58912 4.57292,4.57292 0 0 0 0.91458,3.04863 2.5405111,2.5405111 0 0 0 2.0324,1.01621 4.4712995,4.4712995 0 0 0 3.25187,-0.91459 z"
     id="path24"
     inkscape:connector-curvature="0"
     style="fill:#141515;stroke-width:10.16204453" />
  <path
     class="cls-1"
     d="m 678.30027,116.9212 a 3.8615768,3.8615768 0 0 0 2.43889,-0.91458 3.658336,3.658336 0 0 0 0.81296,-2.74375 V 94.971172 a 3.5567156,3.5567156 0 0 0 -0.71133,-2.642124 3.5567156,3.5567156 0 0 0 -2.54052,-0.914583 V 89.890154 H 689.885 v 4.369684 a 13.922001,13.922001 0 0 1 3.65834,-3.65833 10.162045,10.162045 0 0 1 5.08102,-1.422687 8.6377379,8.6377379 0 0 1 6.09722,2.032395 9.5523218,9.5523218 0 0 1 2.13402,7.113432 v 14.836592 a 3.7599565,3.7599565 0 0 0 0.71136,2.64213 4.1664383,4.1664383 0 0 0 2.33727,0.81295 v 1.52431 h -14.32849 v -1.21943 a 4.1664383,4.1664383 0 0 0 2.23566,-0.91458 c 0,0 0.60971,-1.21946 0.60971,-2.54053 V 98.324648 a 11.279869,11.279869 0 0 0 0,-3.150227 2.743752,2.743752 0 0 0 -2.84537,-1.829165 4.6745405,4.6745405 0 0 0 -2.94698,1.117812 10.162045,10.162045 0 0 0 -2.03241,2.337269 v 16.360903 c 0,1.32106 0,2.23564 0.60972,2.5405 a 4.1664383,4.1664383 0 0 0 2.23565,0.91458 v 1.52431 h -15.14145 z m -212.48835,0 a 3.8615768,3.8615768 0 0 0 2.43889,-0.91458 c 0.60971,0 0.81296,-1.42269 0.81296,-2.74375 V 94.971172 a 4.1664383,4.1664383 0 0 0 -0.60972,-2.642124 3.7599565,3.7599565 0 0 0 -2.64213,-0.914583 v -1.524311 h 11.58473 v 4.369684 a 14.328483,14.328483 0 0 1 3.75995,-3.65833 9.4507014,9.4507014 0 0 1 4.97942,-1.422687 8.6377379,8.6377379 0 0 1 6.09721,2.032395 9.14584,9.14584 0 0 1 2.23565,7.113432 v 14.836592 c 0,1.42269 0,2.23564 0.71135,2.64213 a 3.8615768,3.8615768 0 0 0 2.33728,0.81295 v 1.52431 h -14.43012 v -1.21943 a 4.1664383,4.1664383 0 0 0 2.23564,-0.91458 c 0,0 0.60973,-1.21946 0.60973,-2.54053 V 98.324648 a 8.434497,8.434497 0 0 0 0,-3.150227 2.743752,2.743752 0 0 0 -2.84537,-1.829165 4.8777814,4.8777814 0 0 0 -2.947,1.117812 13.922001,13.922001 0 0 0 -2.03239,2.337269 v 16.360903 c 0,1.32106 0,2.23564 0.6097,2.5405 a 4.1664383,4.1664383 0 0 0 2.23567,0.91458 v 1.52431 h -15.14145 z m 226.81684,-39.428745 2.13402,0.812978 2.54052,1.117812 h 1.21944 1.21943 a 2.6421316,2.6421316 0 0 0 2.13404,-0.914583 6.8085698,6.8085698 0 0 0 1.11783,-2.032415 h 2.64213 a 13.71876,13.71876 0 0 1 -2.43889,5.385892 5.8939858,5.8939858 0 0 1 -4.9794,2.337269 h -1.93079 l -1.82916,-0.609729 -1.72756,-0.812957 -2.94698,-1.219437 h -1.01621 a 2.6421316,2.6421316 0 0 0 -2.33727,1.219437 5.1826428,5.1826428 0 0 0 -0.81298,1.829165 h -2.54049 a 13.312279,13.312279 0 0 1 1.62591,-4.471289 6.4020879,6.4020879 0 0 1 5.69074,-3.251852 z"
     id="path26"
     inkscape:connector-curvature="0"
     style="fill:#141515;stroke-width:10.16204453" />
  <path
     class="cls-1"
     d="m 716.61118,93.446881 a 12.804176,12.804176 0 0 1 10.16203,-4.26806 12.499315,12.499315 0 0 1 10.16206,4.369664 15.344688,15.344688 0 0 1 3.86158,10.162055 15.039826,15.039826 0 0 1 -3.86158,10.16204 12.499315,12.499315 0 0 1 -10.16206,4.4713 12.600935,12.600935 0 0 1 -10.16203,-4.36968 16.259271,16.259271 0 0 1 0,-21.238673 z m 5.89398,19.612739 c 0.71135,2.64212 2.13404,3.96321 4.16643,3.96321 a 3.7599565,3.7599565 0 0 0 3.86158,-3.04863 32.823404,32.823404 0 0 0 1.01621,-10.16204 37.497944,37.497944 0 0 0 -1.01621,-10.16205 3.7599565,3.7599565 0 0 0 -3.75996,-3.048602 c -2.13401,0 -3.5567,1.321061 -4.16643,3.963184 a 37.904425,37.904425 0 0 0 -0.71134,9.044228 44.408135,44.408135 0 0 0 0.60972,9.4507 z"
     id="path28"
     inkscape:connector-curvature="0"
     style="fill:#141515;stroke-width:10.16204453" />
  <path
     class="cls-1"
     d="m 742.82925,116.9212 a 4.1664383,4.1664383 0 0 0 2.23566,-1.01621 c 0,0 0.71134,-1.32106 0.71134,-2.64212 V 81.760514 a 3.658336,3.658336 0 0 0 -0.60974,-2.540498 4.57292,4.57292 0 0 0 -2.33726,-1.016208 v -1.930791 h 11.58474 v 36.278493 c 0,1.32107 0,2.23565 0.71133,2.64213 a 5.5891246,5.5891246 0 0 0 2.33727,1.0162 v 1.52432 h -14.63334 z"
     id="path30"
     inkscape:connector-curvature="0"
     style="fill:#141515;stroke-width:10.16204453" />
  <path
     class="cls-1"
     d="m 764.4744,105.84456 a 53.045872,53.045872 0 0 1 12.49932,-4.87777 v -4.369683 a 5.8939858,5.8939858 0 0 0 -1.21944,-4.06483 5.3858837,5.3858837 0 0 0 -4.06482,-1.219436 5.0810223,5.0810223 0 0 0 -2.64213,0.609728 1.829168,1.829168 0 0 0 -1.11783,1.524312 c 0,0 0,0 0,0.609707 v 0.508104 0 a 4.1664383,4.1664383 0 0 1 0.71135,1.117833 2.8453726,2.8453726 0 0 1 0,1.321062 3.1502338,3.1502338 0 0 1 -1.21946,2.642126 3.9631974,3.9631974 0 0 1 -2.64212,0.914577 4.4712995,4.4712995 0 0 1 -3.04862,-1.016184 3.8615768,3.8615768 0 0 1 -1.21944,-3.048623 6.4020879,6.4020879 0 0 1 3.35348,-5.589122 15.547928,15.547928 0 0 1 8.12962,-2.032415 17.681957,17.681957 0 0 1 8.73937,2.032415 8.0280151,8.0280151 0 0 1 3.4551,7.418287 v 14.836592 a 1.829168,1.829168 0 0 0 0,1.11781 1.0162045,1.0162045 0 0 0 0.81296,0.50811 h 0.60972 l 0.91459,-0.81296 0.91458,1.32106 a 10.162045,10.162045 0 0 1 -3.96321,2.947 9.4507014,9.4507014 0 0 1 -2.947,0.5081 4.57292,4.57292 0 0 1 -3.96317,-1.62593 4.9794019,4.9794019 0 0 1 -1.01621,-2.64213 14.734965,14.734965 0 0 1 -5.79237,3.65833 12.092833,12.092833 0 0 1 -3.75996,0.60973 7.7231539,7.7231539 0 0 1 -2.84538,-1.82916 5.7923655,5.7923655 0 0 1 -2.13401,-4.97941 7.3166721,7.3166721 0 0 1 3.45508,-6.09723 z m 10.67016,7.82478 a 11.787971,11.787971 0 0 0 1.72753,-1.62593 v -8.9426 a 15.243067,15.243067 0 0 0 -4.36967,1.82916 6.7069495,6.7069495 0 0 0 -3.04861,5.58912 4.57292,4.57292 0 0 0 0.91458,3.04863 2.5405111,2.5405111 0 0 0 2.03242,1.01621 4.4712995,4.4712995 0 0 0 2.74375,-0.91459 z"
     id="path32"
     inkscape:connector-curvature="0"
     style="fill:#141515;stroke-width:10.16204453" />
  <path
     class="cls-1"
     d="m 341.12363,212.95251 a 10.162045,10.162045 0 0 1 8.33288,-4.26805 7.519913,7.519913 0 0 1 4.26805,1.21944 12.804176,12.804176 0 0 1 2.947,2.64212 v -11.27986 c 0,-1.52431 0,-2.43889 -0.91458,-2.84537 a 8.3328766,8.3328766 0 0 0 -3.65833,-0.71134 v -1.42269 h 13.21065 v 35.2623 a 3.3534747,3.3534747 0 0 0 0.71133,2.54051 3.8615768,3.8615768 0 0 0 2.74376,0.91459 v 1.42269 c -3.45509,0 -5.58913,0.6097 -6.60534,0.81295 -1.01621,0.20316 -2.74374,0.60973 -5.28426,1.21943 v -3.96317 a 21.645156,21.645156 0 0 1 -3.15023,2.64212 9.2474605,9.2474605 0 0 1 -4.87779,1.32105 10.162045,10.162045 0 0 1 -7.82476,-3.75995 15.039826,15.039826 0 0 1 -3.35348,-10.16203 17.783578,17.783578 0 0 1 3.4551,-11.58474 z m 14.02362,20.32409 a 5.7923655,5.7923655 0 0 0 1.52431,-2.43888 V 215.8995 c 0,-0.5081 0,-1.21944 -1.32106,-2.23564 a 4.8777814,4.8777814 0 0 0 -3.55673,-1.42268 c -2.23564,0 -3.65833,1.5243 -4.47128,4.4713 a 30.486133,30.486133 0 0 0 -0.60973,6.91019 31.095857,31.095857 0 0 0 0.60973,7.11342 q 1.11781,4.26807 4.26805,4.26807 a 4.57292,4.57292 0 0 0 3.55671,-1.72756 z"
     id="path34"
     inkscape:connector-curvature="0"
     style="fill:#141515;stroke-width:10.16204453" />
  <path
     class="cls-1"
     d="m 375.26811,212.64765 a 12.194454,12.194454 0 0 1 9.0442,-3.96319 11.178249,11.178249 0 0 1 5.69074,1.62592 10.771767,10.771767 0 0 1 4.16646,4.36968 15.446307,15.446307 0 0 1 1.42267,5.4875 12.702556,12.702556 0 0 1 0,2.4389 h -15.34467 a 23.271081,23.271081 0 0 0 1.11782,6.40207 6.6053289,6.6053289 0 0 0 6.40209,5.08104 7.0118107,7.0118107 0 0 0 4.06481,-1.42269 20.324089,20.324089 0 0 0 2.84537,-2.64214 l 1.42268,0.81298 a 16.157651,16.157651 0 0 1 -6.60533,6.50371 12.702556,12.702556 0 0 1 -14.02361,-2.4389 14.328483,14.328483 0 0 1 -3.9632,-11.27986 15.243067,15.243067 0 0 1 3.75997,-10.97502 z m 13.0074,7.72316 a 25.811593,25.811593 0 0 0 -0.81295,-7.62154 3.0486133,3.0486133 0 0 0 -3.15025,-2.13404 3.2518542,3.2518542 0 0 0 -3.25185,2.54053 24.287287,24.287287 0 0 0 -1.01621,7.21505 z"
     id="path36"
     inkscape:connector-curvature="0"
     style="fill:#141515;stroke-width:10.16204453" />
  <path
     class="cls-1"
     d="m 413.68063,236.12197 a 6.7069495,6.7069495 0 0 0 4.06483,-1.32107 6.8085698,6.8085698 0 0 0 1.01619,-4.26805 V 203.4002 a 5.8939858,5.8939858 0 0 0 -1.11782,-4.36969 7.2150516,7.2150516 0 0 0 -3.9632,-1.21943 v -1.52432 h 19.71435 a 22.458117,22.458117 0 0 1 11.8896,2.54051 9.3490809,9.3490809 0 0 1 4.06483,8.73937 10.162045,10.162045 0 0 1 -1.62594,5.58912 10.162045,10.162045 0 0 1 -5.28426,4.26805 18.29168,18.29168 0 0 1 -5.48749,1.42269 h -8.33288 v 11.48312 a 5.7923655,5.7923655 0 0 0 1.21944,4.36966 6.5037086,6.5037086 0 0 0 4.16644,1.21946 v 1.5243 h -20.32409 z m 22.25488,-20.32409 c 1.93079,-1.21944 2.947,-3.86156 2.947,-8.02802 a 14.226863,14.226863 0 0 0 -1.4227,-6.70693 5.487504,5.487504 0 0 0 -5.38588,-2.54052 5.6907449,5.6907449 0 0 0 -2.64212,0 1.829168,1.829168 0 0 0 -0.81297,1.72754 v 16.3609 a 14.734965,14.734965 0 0 0 7.31667,-0.91458 z"
     id="path38"
     inkscape:connector-curvature="0"
     style="fill:#141515;stroke-width:10.16204453" />
  <path
     class="cls-1"
     d="m 455.54826,225.3502 a 53.045872,53.045872 0 0 1 12.90579,-4.87776 v -4.47131 a 5.9956062,5.9956062 0 0 0 -1.11782,-3.96321 5.1826428,5.1826428 0 0 0 -4.06483,-1.32106 5.487504,5.487504 0 0 0 -2.74375,0.60973 1.7275476,1.7275476 0 0 0 -1.01621,1.52431 1.3210658,1.3210658 0 0 0 0,0.6097 c 0,0 0,0 0,0 v 0 a 2.4388907,2.4388907 0 0 1 0.60974,1.11784 2.8453726,2.8453726 0 0 1 0,1.32106 3.3534747,3.3534747 0 0 1 -1.11783,2.64215 4.4712995,4.4712995 0 0 1 -2.74375,0.91458 4.3696792,4.3696792 0 0 1 -2.947,-1.01621 3.8615768,3.8615768 0 0 1 -1.32107,-2.947 6.0972267,6.0972267 0 0 1 3.35349,-5.58912 14.938205,14.938205 0 0 1 8.12963,-2.13404 17.377097,17.377097 0 0 1 8.73935,2.03242 8.0280151,8.0280151 0 0 1 3.4551,7.51991 v 14.83659 a 1.5243067,1.5243067 0 0 0 0,1.11782 0.81296357,0.81296357 0 0 0 0.71134,0 h 2.23566 v 0.5081 l 0.91458,1.21946 a 10.162045,10.162045 0 0 1 -3.9632,2.94699 7.2150516,7.2150516 0 0 1 -2.947,0.50808 5.0810223,5.0810223 0 0 1 -3.96318,-1.52428 7.2150516,7.2150516 0 0 1 -1.01621,-2.64215 15.344688,15.344688 0 0 1 -5.69075,3.55673 13.312279,13.312279 0 0 1 -3.65834,1.01621 7.8247742,7.8247742 0 0 1 -4.67453,-1.52431 5.6907449,5.6907449 0 0 1 -2.23566,-4.97942 7.519913,7.519913 0 0 1 4.16645,-7.01181 z m 10.67014,7.9264 a 9.14584,9.14584 0 0 0 1.72754,-1.72754 v -8.9426 a 11.686352,11.686352 0 0 0 -4.26806,1.93079 6.3004676,6.3004676 0 0 0 -3.15023,5.48749 4.1664383,4.1664383 0 0 0 0.91458,3.04863 2.6421316,2.6421316 0 0 0 2.03242,1.0162 4.3696792,4.3696792 0 0 0 2.74375,-0.81297 z"
     id="path40"
     inkscape:connector-curvature="0"
     style="fill:#141515;stroke-width:10.16204453" />
  <path
     class="cls-1"
     d="m 481.6647,212.13955 v -1.72754 l 2.03242,-1.72755 2.94699,-3.04861 a 53.147493,53.147493 0 0 0 5.08102,-6.50371 h 1.52431 v 10.16204 h 5.69075 v 2.64214 h -5.79237 v 18.3933 a 4.1664383,4.1664383 0 0 0 0,2.13402 2.0324089,2.0324089 0 0 0 1.93079,1.42268 2.5405111,2.5405111 0 0 0 2.03241,-0.91458 9.2474605,9.2474605 0 0 0 1.62592,-2.33726 l 1.42269,0.71135 a 12.092833,12.092833 0 0 1 -2.54052,4.06481 8.231256,8.231256 0 0 1 -6.40208,2.84537 8.5361175,8.5361175 0 0 1 -3.75996,-0.81297 5.6907449,5.6907449 0 0 1 -3.15023,-5.69074 v -20.32408 z"
     id="path42"
     inkscape:connector-curvature="0"
     style="fill:#141515;stroke-width:10.16204453" />
  <path
     class="cls-1"
     d="m 506.15523,212.64765 a 11.991213,11.991213 0 0 1 9.04422,-4.26806 11.178249,11.178249 0 0 1 5.69074,1.62594 10.162045,10.162045 0 0 1 4.06483,4.36966 17.681957,17.681957 0 0 1 1.5243,5.48752 12.702556,12.702556 0 0 1 0,2.43889 h -15.4463 a 27.539141,27.539141 0 0 0 1.21943,6.40209 6.6053289,6.6053289 0 0 0 6.30048,5.08101 6.8085698,6.8085698 0 0 0 4.06483,-1.42269 15.751169,15.751169 0 0 0 2.94698,-2.64213 l 1.42268,0.81297 a 16.157651,16.157651 0 0 1 -6.60533,6.5037 12.702556,12.702556 0 0 1 -14.02361,-2.43888 14.328483,14.328483 0 0 1 -3.96321,-11.27986 14.836586,14.836586 0 0 1 3.75996,-10.67016 z m 13.00742,7.72316 a 25.811593,25.811593 0 0 0 -0.81295,-7.62154 3.0486133,3.0486133 0 0 0 -3.15025,-2.13404 3.2518542,3.2518542 0 0 0 -3.25185,2.54053 24.287287,24.287287 0 0 0 -1.01621,7.21505 z"
     id="path44"
     inkscape:connector-curvature="0"
     style="fill:#141515;stroke-width:10.16204453" />
  <path
     class="cls-1"
     d="m 529.42632,236.12197 a 4.57292,4.57292 0 0 0 2.43889,-0.81296 3.9631974,3.9631974 0 0 0 0.81295,-2.84537 v -17.98683 a 4.3696792,4.3696792 0 0 0 -0.6097,-2.64212 5.5891246,5.5891246 0 0 0 -2.64214,-0.91458 v -1.42268 h 11.58473 v 4.36968 a 11.787971,11.787971 0 0 1 3.75997,-3.65835 8.5361175,8.5361175 0 0 1 4.97938,-1.82917 8.6377379,8.6377379 0 0 1 6.09723,2.03242 10.162045,10.162045 0 0 1 2.13404,7.21505 v 14.73495 a 4.0648177,4.0648177 0 0 0 0.71133,2.74377 5.7923655,5.7923655 0 0 0 2.33727,0.71133 v 1.52432 h -14.53172 v -1.52432 a 5.3858837,5.3858837 0 0 0 2.23564,-0.81295 3.8615768,3.8615768 0 0 0 0.60974,-2.64215 v -14.53172 a 10.162045,10.162045 0 0 0 0,-3.0486 2.743752,2.743752 0 0 0 -2.84538,-1.93079 4.6745405,4.6745405 0 0 0 -2.94699,1.11781 13.312279,13.312279 0 0 0 -2.0324,2.33727 v 16.3609 a 3.8615768,3.8615768 0 0 0 0.6097,2.64213 5.3858837,5.3858837 0 0 0 2.23565,0.81296 v 1.52431 h -14.93819 z"
     id="path46"
     inkscape:connector-curvature="0"
     style="fill:#141515;stroke-width:10.16204453" />
  <path
     class="cls-1"
     d="m 563.26591,212.13955 v -1.72754 l 2.03242,-1.72755 2.947,-3.04861 a 53.147493,53.147493 0 0 0 5.08102,-6.50371 h 1.5243 v 10.16204 h 5.3859 v 2.64214 h -5.79237 v 18.3933 a 4.1664383,4.1664383 0 0 0 0,2.13402 2.0324089,2.0324089 0 0 0 1.93079,1.42268 2.5405111,2.5405111 0 0 0 2.0324,-0.91458 9.2474605,9.2474605 0 0 0 1.62593,-2.33726 l 1.42268,0.71135 a 12.092833,12.092833 0 0 1 -2.54051,4.06481 8.231256,8.231256 0 0 1 -6.40208,2.84537 8.5361175,8.5361175 0 0 1 -3.75995,-0.81297 5.6907449,5.6907449 0 0 1 -3.15023,-5.69074 v -20.32408 z"
     id="path48"
     inkscape:connector-curvature="0"
     style="fill:#141515;stroke-width:10.16204453" />
  <path
     class="cls-1"
     d="m 587.75646,212.64765 a 11.991213,11.991213 0 0 1 9.0442,-3.96319 11.178249,11.178249 0 0 1 5.69075,1.62592 10.162045,10.162045 0 0 1 4.06482,4.36968 17.681957,17.681957 0 0 1 1.52432,5.4875 12.702556,12.702556 0 0 1 0,2.4389 h -15.44632 a 27.539141,27.539141 0 0 0 1.21946,6.40207 6.5037086,6.5037086 0 0 0 10.16203,3.65835 15.751169,15.751169 0 0 0 2.947,-2.64214 l 1.42268,0.81298 a 16.157651,16.157651 0 0 1 -6.60533,6.50371 12.702556,12.702556 0 0 1 -14.02361,-2.4389 14.328483,14.328483 0 0 1 -3.96321,-11.27986 14.836586,14.836586 0 0 1 3.96321,-10.97502 z m 13.0074,7.72316 a 25.811593,25.811593 0 0 0 -0.81295,-7.62154 3.0486133,3.0486133 0 0 0 -3.15025,-2.13404 3.2518542,3.2518542 0 0 0 -3.25185,2.54053 24.287287,24.287287 0 0 0 -1.01621,7.21505 z"
     id="path50"
     inkscape:connector-curvature="0"
     style="fill:#141515;stroke-width:10.16204453" />
  <path
     class="cls-1"
     d="m 611.434,228.70369 h 1.62595 a 10.162045,10.162045 0 0 0 3.35347,6.19884 8.434497,8.434497 0 0 0 5.08102,1.82916 5.0810223,5.0810223 0 0 0 3.4551,-1.11781 3.7599565,3.7599565 0 0 0 1.11781,-2.74377 3.8615768,3.8615768 0 0 0 -1.21944,-2.84537 6.4020879,6.4020879 0 0 0 -2.13401,-1.32105 l -4.57294,-2.23565 a 14.125242,14.125242 0 0 1 -5.08101,-3.86158 7.2150516,7.2150516 0 0 1 -1.62595,-4.87779 8.3328766,8.3328766 0 0 1 2.54053,-6.09723 9.14584,9.14584 0 0 1 6.91017,-3.25185 15.547928,15.547928 0 0 1 4.06484,0.71136 l 2.74374,0.6097 a 1.829168,1.829168 0 0 0 1.11784,0 3.658336,3.658336 0 0 0 0,-0.91458 h 2.23564 v 8.84099 h -1.52431 a 11.48311,11.48311 0 0 0 -2.84538,-4.97941 6.6053289,6.6053289 0 0 0 -4.67453,-1.82917 3.4550951,3.4550951 0 0 0 -2.947,1.11784 3.1502338,3.1502338 0 0 0 0,4.57291 9.14584,9.14584 0 0 0 3.25185,2.33727 l 3.35348,1.52431 a 20.933812,20.933812 0 0 1 4.57294,2.947 8.3328766,8.3328766 0 0 1 2.33726,5.89397 10.162045,10.162045 0 0 1 -2.43889,6.30047 8.9425991,8.9425991 0 0 1 -7.41828,2.94698 10.162045,10.162045 0 0 1 -2.4389,0 l -3.04863,-0.91458 h -1.11781 -0.71135 v 0 a 1.2194454,1.2194454 0 0 0 -0.91458,0 10.670147,10.670147 0 0 0 -0.81296,1.32109 h -1.42269 z"
     id="path52"
     inkscape:connector-curvature="0"
     style="fill:#141515;stroke-width:10.16204453" />
  <path
     class="cls-1"
     d="m 650.25302,242.42244 a 4.9794019,4.9794019 0 0 1 3.04863,-0.91458 3.4550951,3.4550951 0 0 1 2.54049,0.81295 2.6421316,2.6421316 0 0 1 1.01621,2.03242 v 1.42269 a 1.1178249,1.1178249 0 0 0 0,0.71133 1.0162045,1.0162045 0 0 0 0.81298,0 c 1.01618,0 2.03239,-0.81295 2.94697,-2.54049 a 33.941228,33.941228 0 0 0 2.4389,-5.99561 l -7.21506,-17.88522 q -0.81296,-2.03238 -1.52429,-3.65833 l -1.52431,-3.25184 a 14.023621,14.023621 0 0 0 -1.32106,-2.03242 3.1502338,3.1502338 0 0 0 -1.72757,0 v -1.42269 h 15.3447 v 1.42269 a 7.9263948,7.9263948 0 0 0 -2.43889,0 1.2194454,1.2194454 0 0 0 -0.91458,1.32108 4.3696792,4.3696792 0 0 1 0,0.50809 v 1.32108 l 4.87779,12.09282 v 0 l 4.06481,-10.77176 c 0,-0.60973 0,-1.11784 0,-1.62594 a 4.57292,4.57292 0 0 0 0,-1.11781 c 0,-0.91458 0,-1.42268 -0.81297,-1.62593 a 5.7923655,5.7923655 0 0 0 -2.54051,0 v -1.42269 h 9.24747 v 1.42269 a 5.3858837,5.3858837 0 0 0 -1.93079,0.60972 6.5037086,6.5037086 0 0 0 -1.52431,2.74375 l -9.14585,24.3889 a 46.034061,46.034061 0 0 1 -4.57292,9.14584 7.4182925,7.4182925 0 0 1 -6.09721,2.4389 6.0972267,6.0972267 0 0 1 -4.47132,-1.52431 4.0648177,4.0648177 0 0 1 -1.62591,-3.15022 3.658336,3.658336 0 0 1 3.0486,-3.45511 z"
     id="path54"
     inkscape:connector-curvature="0"
     style="fill:#141515;stroke-width:10.16204453" />
  <path
     class="cls-1"
     d="m 695.67737,236.12197 a 6.6053289,6.6053289 0 0 0 4.57291,-1.32107 5.0810223,5.0810223 0 0 0 1.01621,-3.5567 v -29.16507 a 3.8615768,3.8615768 0 0 0 -1.11782,-3.25186 10.771767,10.771767 0 0 0 -4.26806,-1.01619 v -1.52432 h 15.4463 l 11.99123,28.35211 v 0 l 11.99119,-28.35211 h 15.4463 v 1.93079 a 8.7393584,8.7393584 0 0 0 -4.26803,1.11782 6.198847,6.198847 0 0 0 -1.11783,4.4713 v 27.13265 a 6.3004676,6.3004676 0 0 0 1.11783,4.36969 6.9101903,6.9101903 0 0 0 4.26803,1.21945 v 1.5243 h -20.32406 v -1.5243 a 9.5523218,9.5523218 0 0 0 4.0648,-0.91458 4.1664383,4.1664383 0 0 0 1.4227,-3.65835 v -30.28289 h -0.50811 l -14.9382,35.97364 h -1.72756 l -15.14145,-35.26229 v 0 27.64075 a 6.7069495,6.7069495 0 0 0 1.11783,4.47132 c 0.71133,1.01619 2.4389,1.5243 4.9794,1.62591 v 1.52431 h -14.02361 z"
     id="path56"
     inkscape:connector-curvature="0"
     style="fill:#141515;stroke-width:10.16204453" />
  <path
     class="cls-1"
     d="m 758.17395,225.3502 a 53.045872,53.045872 0 0 1 12.4993,-4.87776 v -4.47131 a 5.487504,5.487504 0 0 0 -1.21944,-3.96321 4.9794019,4.9794019 0 0 0 -4.06483,-1.32106 5.0810223,5.0810223 0 0 0 -2.64212,0.60973 1.829168,1.829168 0 0 0 -1.11784,1.52431 c 0,0 0,0 0,0.6097 v 0 0 a 4.1664383,4.1664383 0 0 1 0.71135,1.11784 2.8453726,2.8453726 0 0 1 0,1.32106 3.1502338,3.1502338 0 0 1 -1.21942,2.64215 3.9631974,3.9631974 0 0 1 -2.64216,0.91458 4.4712995,4.4712995 0 0 1 -3.04859,-1.01621 3.7599565,3.7599565 0 0 1 -1.21946,-2.947 6.0972267,6.0972267 0 0 1 3.35347,-5.58912 14.633344,14.633344 0 0 1 8.12965,-2.13404 17.681957,17.681957 0 0 1 8.73935,2.03242 8.231256,8.231256 0 0 1 3.45509,7.51991 v 14.83659 a 2.0324089,2.0324089 0 0 0 0,1.11782 0.914584,0.914584 0 0 0 0.81296,0 h 0.60973 l 0.91459,-0.71133 0.91458,1.21943 a 10.162045,10.162045 0 0 1 -3.96319,2.94699 7.2150516,7.2150516 0 0 1 -2.947,0.50811 4.776161,4.776161 0 0 1 -3.9632,-1.52431 5.7923655,5.7923655 0 0 1 -1.01621,-2.64212 15.751169,15.751169 0 0 1 -5.79235,3.5567 12.092833,12.092833 0 0 1 -3.75996,0.60973 8.3328766,8.3328766 0 0 1 -4.77616,-1.52431 5.8939858,5.8939858 0 0 1 -2.13404,-4.9794 7.519913,7.519913 0 0 1 5.3859,-5.38589 z m 10.16203,7.9264 1.72756,-1.72754 v -8.9426 a 13.007417,13.007417 0 0 0 -4.36968,1.93079 6.4020879,6.4020879 0 0 0 -3.04863,5.48749 4.1664383,4.1664383 0 0 0 0.91458,3.04863 2.5405111,2.5405111 0 0 0 2.03242,1.0162 4.3696792,4.3696792 0 0 0 3.25186,-0.81297 z"
     id="path58"
     inkscape:connector-curvature="0"
     style="fill:#141515;stroke-width:10.16204453" />
  <path
     class="cls-1"
     d="m 784.392,236.12197 a 4.57292,4.57292 0 0 0 2.4389,-0.81296 3.4550951,3.4550951 0 0 0 0.71135,-2.4389 v -18.3933 a 3.5567156,3.5567156 0 0 0 -0.71135,-2.64212 5.0810223,5.0810223 0 0 0 -2.54052,-0.91458 v -1.42268 h 11.58474 v 4.77616 a 21.340293,21.340293 0 0 1 3.86158,-4.06483 6.8085698,6.8085698 0 0 1 4.4713,-1.5243 5.2842632,5.2842632 0 0 1 3.35347,1.21944 4.3696792,4.3696792 0 0 1 1.52432,3.5567 4.0648177,4.0648177 0 0 1 -1.11784,2.947 3.4550951,3.4550951 0 0 1 -2.74375,1.21946 4.0648177,4.0648177 0 0 1 -3.35348,-1.82918 c -0.91458,-1.21944 -1.62591,-1.82917 -2.03239,-1.82917 a 3.3534747,3.3534747 0 0 0 -2.43889,1.52431 6.7069495,6.7069495 0 0 0 -1.21946,4.26806 v 11.58475 a 6.0972267,6.0972267 0 0 0 0.81297,3.86156 6.6053289,6.6053289 0 0 0 3.55672,0.91458 v 1.52431 h -16.25929 z"
     id="path60"
     inkscape:connector-curvature="0"
     style="fill:#141515;stroke-width:10.16204453" />
  <path
     class="cls-1"
     d="m 831.84877,210.51363 a 5.8939858,5.8939858 0 0 1 2.74374,4.87777 3.658336,3.658336 0 0 1 -1.11783,2.74377 3.5567156,3.5567156 0 0 1 -2.84537,1.21943 3.658336,3.658336 0 0 1 -2.0324,-0.60972 3.658336,3.658336 0 0 1 -1.62593,-3.45508 v -0.81299 a 3.7599565,3.7599565 0 0 0 0,-1.1178 2.6421316,2.6421316 0 0 0 -0.81296,-2.13404 2.5405111,2.5405111 0 0 0 -1.72756,-0.60974 4.1664383,4.1664383 0 0 0 -4.06481,3.04863 22.356499,22.356499 0 0 0 -1.11783,7.21506 18.901403,18.901403 0 0 0 2.23566,10.16203 6.9101903,6.9101903 0 0 0 6.09722,3.86158 7.7231539,7.7231539 0 0 0 4.16644,-1.11783 11.279869,11.279869 0 0 0 2.54052,-2.23564 l 1.11781,1.01621 a 16.05603,16.05603 0 0 1 -7.0118,5.69074 13.515519,13.515519 0 0 1 -4.26807,0.60973 12.296073,12.296073 0 0 1 -9.55232,-4.16646 14.938205,14.938205 0 0 1 -3.75996,-10.16203 15.954409,15.954409 0 0 1 3.96321,-10.87339 13.61714,13.61714 0 0 1 10.16203,-4.47131 12.296073,12.296073 0 0 1 6.91021,1.32108 z"
     id="path62"
     inkscape:connector-curvature="0"
     style="fill:#141515;stroke-width:10.16204453" />
  <path
     class="cls-1"
     d="m 842.0108,225.3502 a 54.87504,54.87504 0 0 1 12.60095,-4.87776 v -4.47131 a 5.9956062,5.9956062 0 0 0 -1.11783,-3.96321 5.1826428,5.1826428 0 0 0 -4.06481,-1.32106 5.487504,5.487504 0 0 0 -2.74377,0.60973 1.7275476,1.7275476 0 0 0 -1.0162,1.52431 1.3210658,1.3210658 0 0 0 0,0.6097 v 0 0 a 2.4388907,2.4388907 0 0 1 0.60972,1.11784 2.8453726,2.8453726 0 0 1 0,1.32106 3.3534747,3.3534747 0 0 1 -1.11781,2.64215 4.4712995,4.4712995 0 0 1 -2.74377,0.91458 4.3696792,4.3696792 0 0 1 -2.94698,-1.01621 3.7599565,3.7599565 0 0 1 -1.21946,-2.947 6.0972267,6.0972267 0 0 1 3.25186,-5.58912 14.938205,14.938205 0 0 1 8.12964,-2.13404 17.377097,17.377097 0 0 1 8.73936,2.03242 8.0280151,8.0280151 0 0 1 3.45509,7.51991 v 14.83659 a 1.5243067,1.5243067 0 0 0 0,1.11782 0.81296357,0.81296357 0 0 0 0.71135,0 h 2.23565 l 0.91458,-0.71133 0.91458,1.21943 a 10.162045,10.162045 0 0 1 -3.96319,2.94699 6.7069495,6.7069495 0 0 1 -2.84537,0.50811 5.1826428,5.1826428 0 0 1 -4.06483,-1.52431 7.2150516,7.2150516 0 0 1 -1.01621,-2.64212 15.344688,15.344688 0 0 1 -5.69074,3.5567 13.312279,13.312279 0 0 1 -3.86156,0.60973 8.0280151,8.0280151 0 0 1 -4.67456,-1.52431 5.6907449,5.6907449 0 0 1 -2.23565,-4.9794 7.519913,7.519913 0 0 1 3.75996,-5.38589 z m 10.16206,7.9264 a 9.14584,9.14584 0 0 0 1.72754,-1.72754 v -8.9426 a 11.686352,11.686352 0 0 0 -4.26806,1.93079 6.3004676,6.3004676 0 0 0 -3.15023,5.48749 4.1664383,4.1664383 0 0 0 0.91458,3.04863 2.6421316,2.6421316 0 0 0 2.03242,1.0162 4.3696792,4.3696792 0 0 0 3.25185,-0.81297 z"
     id="path64"
     inkscape:connector-curvature="0"
     style="fill:#141515;stroke-width:10.16204453" />
  <path
     class="cls-1"
     d="m 868.73699,228.70369 h 1.62592 a 10.162045,10.162045 0 0 0 3.35348,6.19884 8.434497,8.434497 0 0 0 5.08101,1.82916 4.8777814,4.8777814 0 0 0 3.45511,-1.11781 3.7599565,3.7599565 0 0 0 1.11782,-2.74377 3.8615768,3.8615768 0 0 0 -1.21945,-2.84537 6.4020879,6.4020879 0 0 0 -2.13402,-1.32105 l -4.57293,-2.23565 a 14.125242,14.125242 0 0 1 -5.08102,-3.86158 7.2150516,7.2150516 0 0 1 -1.62592,-4.87779 8.3328766,8.3328766 0 0 1 2.5405,-6.09723 9.14584,9.14584 0 0 1 6.9102,-2.64212 14.836586,14.836586 0 0 1 4.06482,0.71133 l 2.74374,0.60973 a 1.6259271,1.6259271 0 0 0 1.11784,0 3.658336,3.658336 0 0 0 0.50809,-0.91458 h 1.32107 v 8.84097 h -1.52432 a 11.48311,11.48311 0 0 0 -2.84537,-4.97939 6.6053289,6.6053289 0 0 0 -4.67454,-1.82916 3.4550951,3.4550951 0 0 0 -2.94699,1.1178 3.1502338,3.1502338 0 0 0 0,4.57294 9.14584,9.14584 0 0 0 3.25185,2.33727 l 3.35347,1.52429 a 20.933812,20.933812 0 0 1 4.57294,2.94699 8.3328766,8.3328766 0 0 1 2.33727,5.894 10.162045,10.162045 0 0 1 -2.43889,6.30046 8.9425991,8.9425991 0 0 1 -7.4183,2.947 10.162045,10.162045 0 0 1 -2.43889,0 l -3.04862,-0.91458 h -1.11781 -0.71135 v 0 a 1.2194454,1.2194454 0 0 0 -0.91459,0 10.670147,10.670147 0 0 0 -0.81295,1.32105 h -1.42269 z"
     id="path66"
     inkscape:connector-curvature="0"
     style="fill:#141515;stroke-width:10.16204453" />
  <circle
     class="cls-2"
     cx="191.63995"
     cy="156.24844"
     r="116.05055"
     id="circle68"
     style="fill:#fec80f;stroke-width:10.16204453" />
  <path
     class="cls-3"
     d="M 191.63995,2.4966728 H 1 V 310.00004 h 191.04643 c 0,0 -153.548486,-20.32409 -153.548486,-153.95498 0,-133.630776 153.142006,-153.5483872 153.142006,-153.5483872 z"
     id="path70"
     inkscape:connector-curvature="0"
     style="fill:#24408b;stroke-width:10.16204453" />
</svg>
